<?xml version="1.0" encoding="UTF-8" standalone="no"?>
<svg xmlns="http://www.w3.org/2000/svg" version="1.1" xmlns:xlink="http://www.w3.org/1999/xlink" xmlns:svgjs="http://svgjs.dev/svgjs" width="1500" height="1500" viewBox="0 0 1500 1500"><rect width="1500" height="1500" fill="#000000"></rect><g transform="matrix(0.6666666666666666,0,0,0.6666666666666666,250,348.33333333333337)"><svg viewBox="0 0 448 360" data-background-color="#000000" preserveAspectRatio="xMidYMid meet" height="1205" width="1500" xmlns="http://www.w3.org/2000/svg" xmlns:xlink="http://www.w3.org/1999/xlink"><g id="tight-bounds" transform="matrix(1,0,0,1,0,0)"><svg viewBox="0 0 448 360" height="360" width="448"><rect width="448" height="360" fill="url(#1d6de431-a9c3-422c-b8cd-cfe49b2dca43)" mask="url(#d200338f-5fbd-44b6-b8cc-cc322f3f029a)" data-fill-palette-color="tertiary"></rect><g><svg></svg></g><g><svg viewBox="0 0 448 360" height="360" width="448"><g><path d="M193.855 44.683c1.378 0 2.494 1.116 2.495 2.494 0 1.378-1.116 2.494-2.495 2.495h-23.846l-17.167 17.167c-0.973 0.973-2.551 0.973-3.53 0-0.973-0.973-0.973-2.551 0-3.529l13.644-13.645h-40.378c-11.518 0-19.151 2.688-23.815 8.113-4.739 5.519-6.66 14.056-6.66 25.63 0 0.069 0 0.137-0.006 0.206l0.212 36.692 14.692-14.692c0.973-0.973 2.551-0.973 3.53 0 0.973 0.973 0.973 2.551 0 3.53l-18.178 18.178c0.206 35.832 0.193 71.358-0.013 107.19 25.486 25.2 50.617 50.312 75.811 75.791h25.38c1.378 0 2.494 1.116 2.495 2.495 0 1.378-1.116 2.494-2.495 2.494h-20.448l25.942 26.241 0.006-0.006c8.188 8.188 15.577 12.859 22.824 13.413 7.146 0.543 14.442-2.956 22.586-11.093l28.555-28.555h-20.722c-1.378 0-2.494-1.116-2.495-2.494 0-1.378 1.116-2.494 2.495-2.495h25.711l16.625-16.625c0.973-0.973 2.551-0.973 3.529 0 0.973 0.973 0.973 2.551 0 3.53l-13.101 13.102h40.377c11.518 0 19.151-2.688 23.815-8.113 4.739-5.519 6.66-14.056 6.66-25.63h0.013l-0.212-36.898-16.014 16.014c-0.973 0.973-2.551 0.973-3.53 0-0.973-0.973-0.973-2.551 0-3.53l19.5-19.5c-0.206-35.832-0.193-71.358 0.013-107.19-25.486-25.2-50.617-50.312-75.811-75.791h-26.147c-1.378 0-2.494-1.116-2.495-2.495 0-1.378 1.116-2.494 2.495-2.494h21.215l-25.824-26.123c-0.044-0.037-0.081-0.075-0.124-0.112-8.188-8.188-15.577-12.859-22.824-13.413-7.146-0.543-14.442 2.956-22.586 11.093l-28.555 28.555h18.858zM122.578 44.683h45.367l32.078-32.078c9.248-9.248 17.81-13.195 26.484-12.534 8.568 0.649 16.956 5.824 25.985 14.854 0.05 0.05 0.094 0.094 0.137 0.143l29.278 29.615h43.508c13.071 0 21.919 3.268 27.594 9.871 5.6 6.517 7.864 16.101 7.864 28.867 0 0.081-0.006 0.156-0.012 0.23l-0.225 39.742 28.43 28.112 0.006-0.006c9.03 9.03 14.206 17.411 14.854 25.985 0.661 8.674-3.293 17.236-12.534 26.484l-30.768 30.768 0.237 41.843h0.012c0 12.765-2.27 22.35-7.864 28.867-5.675 6.604-14.524 9.872-27.594 9.871h-45.366l-32.078 32.078c-9.248 9.248-17.81 13.195-26.484 12.534-8.568-0.649-16.956-5.824-25.985-14.854l0.006-0.006-29.421-29.758h-43.509c-13.071 0-21.919-3.268-27.594-9.872-5.6-6.517-7.864-16.101-7.863-28.866h0.012l0.231-39.972-28.293-27.969c-0.05-0.044-0.1-0.087-0.143-0.137-9.03-9.03-14.206-17.411-14.854-25.985-0.661-8.674 3.293-17.236 12.534-26.484l30.768-30.768-0.237-41.607c-0.006-0.075-0.012-0.156-0.012-0.23 0-12.765 2.27-22.35 7.864-28.867 5.675-6.604 14.524-9.872 27.594-9.871zM87.682 179.997l-0.274-47.724-27.276 27.276c-8.138 8.138-11.636 15.44-11.094 22.587 0.549 7.246 5.226 14.642 13.413 22.823 0.037 0.037 0.081 0.081 0.113 0.125l24.837 24.551 0.281-49.644zM92.303 241.483l-0.2 35.09h0.013c0 11.58 1.921 20.117 6.66 25.63 4.664 5.432 12.297 8.113 23.815 8.113h38.576l-33.55-33.936-35.308-34.903zM325.415 49.672h-38.575l33.549 33.936 35.308 34.902 0.2-34.884c-0.006-0.069-0.006-0.137-0.007-0.205 0-11.58-1.921-20.117-6.66-25.63-4.664-5.432-12.297-8.113-23.815-8.113zM360.599 130.352l-0.281 49.645 0.274 47.724 27.276-27.276c8.138-8.138 11.636-15.44 11.094-22.587-0.549-7.252-5.226-14.642-13.413-22.824l0.006-0.006-24.956-24.669z" fill="url(#1d6de431-a9c3-422c-b8cd-cfe49b2dca43)" fill-rule="nonzero" stroke="none" stroke-width="1" stroke-linecap="butt" stroke-linejoin="miter" stroke-miterlimit="10" stroke-dasharray="" stroke-dashoffset="0" font-family="none" font-weight="none" font-size="none" text-anchor="none" style="mix-blend-mode: normal" data-fill-palette-color="tertiary"></path></g><g transform="matrix(1,0,0,1,141.7350859453994,90)"><svg viewBox="0 0 164.52982810920122 180" height="180" width="164.52982810920122"><g><svg viewBox="0 0 164.52982810920122 180" height="180" width="164.52982810920122"><g><svg viewBox="0 0 164.52982810920122 180" height="180" width="164.52982810920122"><g><svg viewBox="0 0 164.52982810920122 180" height="180" width="164.52982810920122"><g id="textblocktransform"><svg viewBox="0 0 164.52982810920122 180" height="180" width="164.52982810920122" id="textblock"><g><svg viewBox="0 0 164.52982810920122 180" height="180" width="164.52982810920122"><g transform="matrix(1,0,0,1,0,0)"><svg width="164.52982810920122" viewBox="-2.95 -40.5 46.2 50.45" height="180" data-palette-color="#f551be"><path d="M21 5.95L21 5.95 12.9 5.95Q11.65 5.95 11.13 5.4 10.6 4.85 10.6 3.65L10.6 3.65 10.6-2.6 3.05-12.7Q1.85-14.3 1.45-15.5 1.05-16.7 1.05-19.15L1.05-19.15 1.05-28.75Q1.05-29.4 1.23-29.85 1.4-30.3 1.75-30.6L1.75-30.6 8.2-36.05Q8.45-36.25 8.88-36.38 9.3-36.5 9.8-36.5L9.8-36.5 17.5-36.5Q18.7-36.5 19.25-35.95 19.8-35.4 19.8-34.2L19.8-34.2 19.8-26Q19.8-25.55 19.85-25.1 19.9-24.65 20.15-24.15L20.15-24.15 20.75-23.3 20.75-28.75Q20.75-29.4 20.93-29.85 21.1-30.3 21.45-30.6L21.45-30.6 27.9-36.05Q28.15-36.25 28.58-36.38 29-36.5 29.5-36.5L29.5-36.5 36.95-36.5Q38.15-36.5 38.7-35.95 39.25-35.4 39.25-34.2L39.25-34.2 39.25-24.6Q39.25-22.15 38.85-20.95 38.45-19.75 37.25-18.15L37.25-18.15 29.75-8 29.75-1.8Q29.75-1.15 29.58-0.7 29.4-0.25 29.05 0.05L29.05 0.05 22.55 5.45Q22.35 5.65 21.93 5.8 21.5 5.95 21 5.95ZM19.35 0L27.45 0Q28.4 0 28.83-0.43 29.25-0.85 29.25-1.8L29.25-1.8 29.25-8.15 36.85-18.45Q37.95-20 38.35-21.15 38.75-22.3 38.75-24.6L38.75-24.6 38.75-34.2Q38.75-35.15 38.33-35.58 37.9-36 36.95-36L36.95-36 29.5-36Q28.55-36 28.13-35.58 27.7-35.15 27.7-34.2L27.7-34.2 27.7-26Q27.7-25.5 27.65-24.95 27.6-24.4 27.25-23.9L27.25-23.9 24.95-20.3Q24.7-19.85 24.43-19.65 24.15-19.45 23.75-19.45L23.75-19.45 23.25-19.45Q22.85-19.45 22.58-19.65 22.3-19.85 22.05-20.3L22.05-20.3 19.75-23.9Q19.4-24.4 19.35-24.95 19.3-25.5 19.3-26L19.3-26 19.3-34.2Q19.3-35.15 18.88-35.58 18.45-36 17.5-36L17.5-36 9.8-36Q8.85-36 8.43-35.58 8-35.15 8-34.2L8-34.2 8-24.6Q8-22.3 8.38-21.15 8.75-20 9.9-18.45L9.9-18.45 17.55-8.2 17.55-1.8Q17.55-0.85 17.98-0.43 18.4 0 19.35 0L19.35 0ZM24-13.05L24-13.05 23.65-13.05 23.65-4.5 23.15-4.5 23.15-13.05 22.65-13.05Q21.55-13.05 20.68-13.55 19.8-14.05 19-15.15L19-15.15 14.15-21.9Q13.6-22.65 13.5-23.65 13.4-24.65 13.4-25.75L13.4-25.75 13.4-31.5 13.9-31.5 13.9-25.75Q13.9-24.7 14-23.78 14.1-22.85 14.6-22.1L14.6-22.1 19.45-15.35Q20.1-14.35 20.95-13.95 21.8-13.55 22.65-13.55L22.65-13.55 24-13.55Q24.95-13.55 25.73-13.98 26.5-14.4 27.25-15.35L27.25-15.35 32.25-22.1Q32.75-22.75 32.85-23.73 32.95-24.7 32.95-25.75L32.95-25.75 32.95-31.5 33.45-31.5 33.45-25.75Q33.45-24.65 33.38-23.68 33.3-22.7 32.7-21.9L32.7-21.9 27.7-15.15Q26.9-14.05 26.03-13.55 25.15-13.05 24-13.05Z" opacity="1" transform="matrix(1,0,0,1,0,0)" fill="#f551be" class="wordmark-text-0" data-fill-palette-color="primary" id="text-0"></path></svg></g></svg></g></svg></g></svg></g><g></g></svg></g></svg></g></svg></g></svg></g><defs></defs><mask id="d200338f-5fbd-44b6-b8cc-cc322f3f029a"><g id="SvgjsG3185"><svg viewBox="0 0 448 360" height="360" width="448"><g><svg></svg></g><g><svg viewBox="0 0 448 360" height="360" width="448"><g><path d="M193.855 44.683c1.378 0 2.494 1.116 2.495 2.494 0 1.378-1.116 2.494-2.495 2.495h-23.846l-17.167 17.167c-0.973 0.973-2.551 0.973-3.53 0-0.973-0.973-0.973-2.551 0-3.529l13.644-13.645h-40.378c-11.518 0-19.151 2.688-23.815 8.113-4.739 5.519-6.66 14.056-6.66 25.63 0 0.069 0 0.137-0.006 0.206l0.212 36.692 14.692-14.692c0.973-0.973 2.551-0.973 3.53 0 0.973 0.973 0.973 2.551 0 3.53l-18.178 18.178c0.206 35.832 0.193 71.358-0.013 107.19 25.486 25.2 50.617 50.312 75.811 75.791h25.38c1.378 0 2.494 1.116 2.495 2.495 0 1.378-1.116 2.494-2.495 2.494h-20.448l25.942 26.241 0.006-0.006c8.188 8.188 15.577 12.859 22.824 13.413 7.146 0.543 14.442-2.956 22.586-11.093l28.555-28.555h-20.722c-1.378 0-2.494-1.116-2.495-2.494 0-1.378 1.116-2.494 2.495-2.495h25.711l16.625-16.625c0.973-0.973 2.551-0.973 3.529 0 0.973 0.973 0.973 2.551 0 3.53l-13.101 13.102h40.377c11.518 0 19.151-2.688 23.815-8.113 4.739-5.519 6.66-14.056 6.66-25.63h0.013l-0.212-36.898-16.014 16.014c-0.973 0.973-2.551 0.973-3.53 0-0.973-0.973-0.973-2.551 0-3.53l19.5-19.5c-0.206-35.832-0.193-71.358 0.013-107.19-25.486-25.2-50.617-50.312-75.811-75.791h-26.147c-1.378 0-2.494-1.116-2.495-2.495 0-1.378 1.116-2.494 2.495-2.494h21.215l-25.824-26.123c-0.044-0.037-0.081-0.075-0.124-0.112-8.188-8.188-15.577-12.859-22.824-13.413-7.146-0.543-14.442 2.956-22.586 11.093l-28.555 28.555h18.858zM122.578 44.683h45.367l32.078-32.078c9.248-9.248 17.81-13.195 26.484-12.534 8.568 0.649 16.956 5.824 25.985 14.854 0.05 0.05 0.094 0.094 0.137 0.143l29.278 29.615h43.508c13.071 0 21.919 3.268 27.594 9.871 5.6 6.517 7.864 16.101 7.864 28.867 0 0.081-0.006 0.156-0.012 0.23l-0.225 39.742 28.43 28.112 0.006-0.006c9.03 9.03 14.206 17.411 14.854 25.985 0.661 8.674-3.293 17.236-12.534 26.484l-30.768 30.768 0.237 41.843h0.012c0 12.765-2.27 22.35-7.864 28.867-5.675 6.604-14.524 9.872-27.594 9.871h-45.366l-32.078 32.078c-9.248 9.248-17.81 13.195-26.484 12.534-8.568-0.649-16.956-5.824-25.985-14.854l0.006-0.006-29.421-29.758h-43.509c-13.071 0-21.919-3.268-27.594-9.872-5.6-6.517-7.864-16.101-7.863-28.866h0.012l0.231-39.972-28.293-27.969c-0.05-0.044-0.1-0.087-0.143-0.137-9.03-9.03-14.206-17.411-14.854-25.985-0.661-8.674 3.293-17.236 12.534-26.484l30.768-30.768-0.237-41.607c-0.006-0.075-0.012-0.156-0.012-0.23 0-12.765 2.27-22.35 7.864-28.867 5.675-6.604 14.524-9.872 27.594-9.871zM87.682 179.997l-0.274-47.724-27.276 27.276c-8.138 8.138-11.636 15.44-11.094 22.587 0.549 7.246 5.226 14.642 13.413 22.823 0.037 0.037 0.081 0.081 0.113 0.125l24.837 24.551 0.281-49.644zM92.303 241.483l-0.2 35.09h0.013c0 11.58 1.921 20.117 6.66 25.63 4.664 5.432 12.297 8.113 23.815 8.113h38.576l-33.55-33.936-35.308-34.903zM325.415 49.672h-38.575l33.549 33.936 35.308 34.902 0.2-34.884c-0.006-0.069-0.006-0.137-0.007-0.205 0-11.58-1.921-20.117-6.66-25.63-4.664-5.432-12.297-8.113-23.815-8.113zM360.599 130.352l-0.281 49.645 0.274 47.724 27.276-27.276c8.138-8.138 11.636-15.44 11.094-22.587-0.549-7.252-5.226-14.642-13.413-22.824l0.006-0.006-24.956-24.669z" fill="white" fill-rule="nonzero" stroke="none" stroke-width="1" stroke-linecap="butt" stroke-linejoin="miter" stroke-miterlimit="10" stroke-dasharray="" stroke-dashoffset="0" font-family="none" font-weight="none" font-size="none" text-anchor="none" style="mix-blend-mode: normal"></path></g><g transform="matrix(1,0,0,1,141.7350859453994,90)"><svg viewBox="0 0 164.52982810920122 180" height="180" width="164.52982810920122"><g><svg viewBox="0 0 164.52982810920122 180" height="180" width="164.52982810920122"><g><svg viewBox="0 0 164.52982810920122 180" height="180" width="164.52982810920122"><g><svg viewBox="0 0 164.52982810920122 180" height="180" width="164.52982810920122"><g id="SvgjsG3184"><svg viewBox="0 0 164.52982810920122 180" height="180" width="164.52982810920122" id="SvgjsSvg3183"><g><svg viewBox="0 0 164.52982810920122 180" height="180" width="164.52982810920122"><g transform="matrix(1,0,0,1,0,0)"><svg width="164.52982810920122" viewBox="-2.95 -40.5 46.2 50.45" height="180" data-palette-color="#f551be"><path d="M21 5.95L21 5.95 12.9 5.95Q11.65 5.95 11.13 5.4 10.6 4.85 10.6 3.65L10.6 3.65 10.6-2.6 3.05-12.7Q1.85-14.3 1.45-15.5 1.05-16.7 1.05-19.15L1.05-19.15 1.05-28.75Q1.05-29.4 1.23-29.85 1.4-30.3 1.75-30.6L1.75-30.6 8.2-36.05Q8.45-36.25 8.88-36.38 9.3-36.5 9.8-36.5L9.8-36.5 17.5-36.5Q18.7-36.5 19.25-35.95 19.8-35.4 19.8-34.2L19.8-34.2 19.8-26Q19.8-25.55 19.85-25.1 19.9-24.65 20.15-24.15L20.15-24.15 20.75-23.3 20.75-28.75Q20.75-29.4 20.93-29.85 21.1-30.3 21.45-30.6L21.45-30.6 27.9-36.05Q28.15-36.25 28.58-36.38 29-36.5 29.5-36.5L29.5-36.5 36.95-36.5Q38.15-36.5 38.7-35.95 39.25-35.4 39.25-34.2L39.25-34.2 39.25-24.6Q39.25-22.15 38.85-20.95 38.45-19.75 37.25-18.15L37.25-18.15 29.75-8 29.75-1.8Q29.75-1.15 29.58-0.7 29.4-0.25 29.05 0.05L29.05 0.05 22.55 5.45Q22.35 5.65 21.93 5.8 21.5 5.95 21 5.95ZM19.35 0L27.45 0Q28.4 0 28.83-0.43 29.25-0.85 29.25-1.8L29.25-1.8 29.25-8.15 36.85-18.45Q37.95-20 38.35-21.15 38.75-22.3 38.75-24.6L38.75-24.6 38.75-34.2Q38.75-35.15 38.33-35.58 37.9-36 36.95-36L36.95-36 29.5-36Q28.55-36 28.13-35.58 27.7-35.15 27.7-34.2L27.7-34.2 27.7-26Q27.7-25.5 27.65-24.95 27.6-24.4 27.25-23.9L27.25-23.9 24.95-20.3Q24.7-19.85 24.43-19.65 24.15-19.45 23.75-19.45L23.75-19.45 23.25-19.45Q22.85-19.45 22.58-19.65 22.3-19.85 22.05-20.3L22.05-20.3 19.75-23.9Q19.4-24.4 19.35-24.95 19.3-25.5 19.3-26L19.3-26 19.3-34.2Q19.3-35.15 18.88-35.58 18.45-36 17.5-36L17.5-36 9.8-36Q8.85-36 8.43-35.58 8-35.15 8-34.2L8-34.2 8-24.6Q8-22.3 8.38-21.15 8.75-20 9.9-18.45L9.9-18.45 17.55-8.2 17.55-1.8Q17.55-0.85 17.98-0.43 18.4 0 19.35 0L19.35 0ZM24-13.05L24-13.05 23.65-13.05 23.65-4.5 23.15-4.5 23.15-13.05 22.65-13.05Q21.55-13.05 20.68-13.55 19.8-14.05 19-15.15L19-15.15 14.15-21.9Q13.6-22.65 13.5-23.65 13.4-24.65 13.4-25.75L13.4-25.75 13.4-31.5 13.9-31.5 13.9-25.75Q13.9-24.7 14-23.78 14.1-22.85 14.6-22.1L14.6-22.1 19.45-15.35Q20.1-14.35 20.95-13.95 21.8-13.55 22.65-13.55L22.65-13.55 24-13.55Q24.95-13.55 25.73-13.98 26.5-14.4 27.25-15.35L27.25-15.35 32.25-22.1Q32.75-22.75 32.85-23.73 32.95-24.7 32.95-25.75L32.95-25.75 32.95-31.5 33.45-31.5 33.45-25.75Q33.45-24.65 33.38-23.68 33.3-22.7 32.7-21.9L32.7-21.9 27.7-15.15Q26.9-14.05 26.03-13.55 25.15-13.05 24-13.05Z" opacity="1" transform="matrix(1,0,0,1,0,0)" fill="black" class="wordmark-text-0" id="SvgjsPath3182"></path></svg></g></svg></g></svg></g></svg></g><g></g></svg></g></svg></g></svg></g></svg></g><defs><mask></mask></defs></svg><rect width="448" height="360" fill="black" stroke="none" visibility="hidden"></rect></g></mask><linearGradient x1="0" x2="1" y1="0.548" y2="0.55" id="1d6de431-a9c3-422c-b8cd-cfe49b2dca43"><stop stop-color="#ff6cab" offset="0"></stop><stop stop-color="#7366ff" offset="1"></stop></linearGradient></svg><rect width="448" height="360" fill="none" stroke="none" visibility="hidden"></rect></g></svg></g></svg>